<svg xmlns="http://www.w3.org/2000/svg" xmlns:xlink="http://www.w3.org/1999/xlink" width="202" height="161"><defs><path id="a" d="M3457 2076a37 37 0 0 1 37-37h44a37 37 0 1 1 0 74h-44a37 37 0 0 1-37-37z"/><path id="f" d="M3535 2076l-33 12v-24z"/><mask id="c" width="2" height="2" x="-1" y="-1"><path fill="#fff" d="M3457 2039h118v74h-118z"/><use xlink:href="#a"/></mask><filter id="b" width="192" height="156" x="3420" y="2002" filterUnits="userSpaceOnUse"><feOffset dy="8" in="SourceGraphic" result="FeOffset1023Out"/><feGaussianBlur in="FeOffset1023Out" result="FeGaussianBlur1024Out" stdDeviation="10.8 10.8"/></filter><mask id="e" width="2" height="2" x="-1" y="-1"><path fill="#fff" d="M3457 2039h118v74h-118z"/><use xlink:href="#a"/></mask><filter id="d" width="246" height="222" x="3393" y="1975" filterUnits="userSpaceOnUse"><feOffset dy="20" in="SourceGraphic" result="FeOffset1034Out"/><feGaussianBlur in="FeOffset1034Out" result="FeGaussianBlur1035Out" stdDeviation="21.6 21.6"/></filter></defs><g transform="translate(-3416 -2016)"><g filter="url(#b)"><use fill="none" stroke-opacity=".45" stroke-width="0" mask="url(&amp;quot;#c&amp;quot;)" xlink:href="#a"/><use fill="#db1623" fill-opacity=".45" xlink:href="#a"/></g><g filter="url(#d)"><use fill="none" stroke-opacity=".25" stroke-width="0" mask="url(&amp;quot;#e&amp;quot;)" xlink:href="#a"/><use fill="#db1623" fill-opacity=".25" xlink:href="#a"/></g><use fill="#db1623" xlink:href="#a"/></g><use fill="#fff" xlink:href="#f" transform="translate(-3416 -2016)"/></svg>