<svg xmlns="http://www.w3.org/2000/svg" xmlns:xlink="http://www.w3.org/1999/xlink" width="187" height="194" viewBox="0 0 187 194"><defs><path id="a" d="M3464 3705a51 51 0 0 1 51-51h1a51 51 0 0 1 51 51v1a51 51 0 0 1-51 51h-1a51 51 0 0 1-51-51z"/><path id="b" d="M3437 3704a78 78 0 0 1 78-78h1a78 78 0 0 1 78 78v1a78 78 0 0 1-78 78h-1a78 78 0 0 1-78-78z"/><mask id="d" width="2" height="2" x="-1" y="-1"><path fill="#fff" d="M3464 3654h103v103h-103z"/><use xlink:href="#a"/></mask><filter id="c" width="177" height="185" x="3427" y="3617" filterUnits="userSpaceOnUse"><feOffset dy="8" in="SourceGraphic" result="FeOffset1028Out"/><feGaussianBlur in="FeOffset1028Out" result="FeGaussianBlur1029Out" stdDeviation="10.8 10.8"/></filter><mask id="f" width="2" height="2" x="-1" y="-1"><path fill="#fff" d="M3464 3654h103v103h-103z"/><use xlink:href="#a"/></mask><filter id="e" width="231" height="251" x="3400" y="3590" filterUnits="userSpaceOnUse"><feOffset dy="20" in="SourceGraphic" result="FeOffset1039Out"/><feGaussianBlur in="FeOffset1039Out" result="FeGaussianBlur1040Out" stdDeviation="21.6 21.6"/></filter></defs><use fill="#aa0c16" xlink:href="#b" opacity=".3" transform="translate(-3423 -3626)"/><g transform="translate(-3423 -3626)"><g filter="url(#c)"><use fill="none" stroke-opacity=".45" stroke-width="0" mask="url(&amp;quot;#d&amp;quot;)" xlink:href="#a"/><use fill="#db1623" fill-opacity=".45" xlink:href="#a"/></g><g filter="url(#e)"><use fill="none" stroke-opacity=".25" stroke-width="0" mask="url(&amp;quot;#f&amp;quot;)" xlink:href="#a"/><use fill="#db1623" fill-opacity=".25" xlink:href="#a"/></g><use fill="#db1623" xlink:href="#a"/></g></svg>